<svg xmlns="http://www.w3.org/2000/svg" viewBox="0 0 185.18 107.69"><defs><style>.cls-2{fill:#a5b7c6}.cls-3{fill:#ccd9e2}.cls-4{fill:#f9fbfc}.cls-5{fill:#feca2d}.cls-6{fill:#8ea3b2}.cls-7{fill:#112b46}.cls-8{fill:#56548c}.cls-9{fill:#ffc8af}.cls-10{fill:#606bf1}.cls-11{fill:#4356dd}</style></defs><g style="isolation:isolate"><g id="Layer_1" data-name="Layer 1"><path class="cls-2" d="M70.8 69.46h82.65V46.64a2.67 2.67 0 011.43 1.57h1.23v24H30.55V0h125.56v26.14a9.06 9.06 0 00-2.66-.91V2.74H33.21v66.72H70.8z"/><path class="cls-2" d="M156.11 26.14v22.07h-1.23a2.67 2.67 0 00-1.43-1.57V25.23a9.06 9.06 0 012.66.91z"/><path class="cls-3" d="M153.45 58.33v11.13h-18.93a2.66 2.66 0 01-.14-2c.87-1.52 2.92-.43 3.94-1.33s.09-1.36-.12-2.24c-.27-1.12 1.05-1.53 2-1.65 1.34-.19 2-.3 2.26-1.8.15-.83 0-1.88.61-2.57 1.22-1.31 2.82-.5 4.08.2.83.46 1.59 1.21 2.57.84s2.78-2.06 3.73-.58z"/><path class="cls-4" d="M153.45 30.39v16.25c-1.09-.46-2.46-.16-3.81-.76-2.54-1.12-3.28-4-5.11-5.93a7.42 7.42 0 00-1.62-1.29v-8.27z"/><path class="cls-3" d="M153.45 25.23v5.16h-10.54v8.27c-2.47-1.43-5.7-1.36-7.43 1.24s-1.91 5.19-5.94 3.3l-.2-.09V23a18.29 18.29 0 016.33 8.56 5.25 5.25 0 014.11-5.49 5.13 5.13 0 015.07 2.34 9.6 9.6 0 016.59-3.29 8.24 8.24 0 012.01.11z"/><path class="cls-4" d="M153.45 2.74v22.49a8.24 8.24 0 00-2-.12 9.6 9.6 0 00-6.59 3.29 5.13 5.13 0 00-5.07-2.34 5.25 5.25 0 00-4.11 5.49 18.29 18.29 0 00-6.34-8.55v-8h-26.69v8.68a7.34 7.34 0 00-3.31.34A7.5 7.5 0 0095 28V2.74z"/><path class="cls-5" d="M106.76 53.89h6.54a4.84 4.84 0 00-2.36 1.64 3.21 3.21 0 00-.61 1.78h-3.57zm0 8.65h4.34c-.21 1.26-1.12 2.25-1.54 3.43h-2.8z"/><path class="cls-6" d="M94.97 40.39h7.67v29.07h-7.67z"/><path class="cls-3" d="M102.65 23.67v16.72H95V28a7.5 7.5 0 014.37-4 7.34 7.34 0 013.28-.33z"/><path class="cls-2" d="M91.68 40.39h3.29v29.07h-3.29zm0-15.78V2.74h3.29v37.65h-3.29V24.61z"/><path class="cls-6" d="M91.68 40.39v29.07h-1.83V44.6h-7.86v-4.21h9.69z"/><path class="cls-3" d="M91.68 24.61v15.78H82V28.47H66V26H53.66v2.51h-8.41v17l-.22-.2A7.22 7.22 0 0043.28 44V33.91H33.21v-2.26a8.65 8.65 0 014.16.17 16.41 16.41 0 019.46-13.71c6.61-2.89 14.8-.72 19.61 5.49a4.78 4.78 0 013.42-3.43c2.29-.46 5 1.28 5.62 4.25a10.94 10.94 0 0110.84-3.29 10.54 10.54 0 015.36 3.48z"/><path class="cls-4" d="M91.68 2.74v21.87a10.54 10.54 0 00-5.36-3.48 10.94 10.94 0 00-10.84 3.29c-.66-3-3.33-4.71-5.62-4.25a4.78 4.78 0 00-3.42 3.43c-4.81-6.21-13-8.38-19.61-5.49a16.41 16.41 0 00-9.46 13.71 8.65 8.65 0 00-4.16-.17V2.74z"/><path class="cls-3" d="M81.99 44.6h7.86v24.86h-7.86z"/><path class="cls-4" d="M82 44.6v24.86h-4.08c-.18-.87-1.23-1.46-2.17-1.91h2.14v-3.17h-3.18v2.67c-2.37-1.31-1.74-3.25-1.65-5.39.11-2.57-1.56-3.66-3.6-4.21v-1h-3.2v.42h-.42c-3.34-.39-1.6-2.29-2.51-4.26-.46-1-1.44-1.24-2.35-1.55v-2.48h-2.09c-.17-1.24 0-2.52-1.48-3.44-2.94-1.83-5.31-.21-8 1-1.87.88-2.83.47-4.2-.76v-17H82V44.6zm-4.1 15v-3.12h-3.19v3.17zm0-7.9v-3.12h-3.19v3.17zm0-7.9v-3.12h-3.19v3.17zm0-7.9v-3.12h-3.19V36zm-8.46 15.8v-3.12h-3.18v3.17zm0-7.9v-3.12h-3.18v3.17zm0-7.9v-3.12h-3.18V36zM61 43.85v-3.17h-3.19v3.17zM61 36v-3.22h-3.19V36zm-8.45 7.9v-3.22h-3.19v3.17zm0-7.9v-3.22h-3.19V36z"/><path class="cls-6" d="M61 51c.91.31 1.89.53 2.35 1.55.91 2-.83 3.87 2.51 4.26h.42a20.77 20.77 0 013.17.53c2 .55 3.71 1.64 3.6 4.21-.09 2.14-.72 4.08 1.65 5.39v.5h1c.94.45 2 1 2.17 1.91H70.8c-.9-.37-1-1.37-1.06-2.4-.11-2-1.78-1.53-3.17-2.09s-1.21-3-2.41-4c-1.62-1.33-3.43-.59-4.42.93s-1.47-.08-2.68.1a2.25 2.25 0 00-1.75 1c-.81 1.13-1.39 1-2.64.14s-2.09-2.11-3.67-2.72c-1.45-.53-3.51-.53-4.59.75-.81 1-.54 2.19-1 3.26-.64 1.37-1.64.53-2.73.27a2.21 2.21 0 00-2.74 1.16c-.25.77.2 1.57-.64 2-.61.35-1.45.24-1.92.83a1.46 1.46 0 00-.31.83h-1.8V47.14c1.84.77 4.4-1.62 5.75-2.56a4 4 0 014.32-.6A7.22 7.22 0 0145 45.23l.22.2c1.37 1.23 2.33 1.64 4.2.76 2.65-1.26 5-2.88 8-1 1.49.92 1.31 2.2 1.48 3.44a3.49 3.49 0 00.4 1.31A2.7 2.7 0 0061 51z"/><path class="cls-5" d="M77.89 64.38v3.17h-2.14c-.39-.19-.76-.35-1-.5v-2.67zm-3.18-7.9h3.17v3.17h-3.17zm0-7.9h3.17v3.17h-3.17zm0-7.9h3.17v3.17h-3.17zm0-7.9h3.17v3.17h-3.17z"/><path class="cls-3" d="M70.8 69.46H35a1.46 1.46 0 01.31-.83c.47-.59 1.31-.48 1.92-.83.84-.48.39-1.28.64-2a2.21 2.21 0 012.74-1.16c1.09.26 2.09 1.1 2.73-.27.5-1.07.23-2.3 1-3.26 1.08-1.28 3.14-1.28 4.59-.75 1.6.61 2.35 1.94 3.69 2.88s1.83 1 2.64-.14a2.25 2.25 0 011.75-1c1.21-.18 1.76 1.3 2.68-.1s2.8-2.26 4.42-.93c1.2 1 1 3.37 2.41 4s3.06.09 3.17 2.09c.11.93.21 1.93 1.11 2.3z"/><path class="cls-5" d="M69.43 56.48v1a20.77 20.77 0 00-3.17-.53v-.42zm-3.17-7.9h3.17v3.17h-3.17zm0-7.9h3.17v3.17h-3.17zm0-7.9h3.17v3.17h-3.17z"/><path class="cls-6" d="M53.66 25.96H66v2.51H53.66z"/><path class="cls-5" d="M61 48.58V51a2.7 2.7 0 01-1.69-1.15 3.49 3.49 0 01-.4-1.31zm-3.19-7.9h3.17v3.17h-3.17zm0-7.9h3.17v3.17h-3.17zm-8.45 7.9h3.17v3.17h-3.17zm0-7.9h3.17v3.17h-3.17z"/><path class="cls-4" d="M43.28 33.91V44a4 4 0 00-4.32.6c-1.35.94-3.91 3.33-5.75 2.56V33.91zm84.44.77h9.38v17.35h-9.38z"/><path class="cls-4" d="M122.38 19.26h9.38v17.35h-9.38z"/><path class="cls-6" d="M113.3 53.89c1.91-.75 4.16-1.09 4.77-2.8a6.4 6.4 0 00.3-2.42 17.06 17.06 0 010-3.43 4 4 0 011.47-2.45c3-2.47 6.53-1 9.48.32l.2.09c4 1.89 4.22-.7 5.94-3.3s5-2.67 7.43-1.24a7.42 7.42 0 011.64 1.34c1.83 1.94 2.57 4.81 5.11 5.93 1.35.6 2.72.3 3.81.76v11.64c-.95-1.48-2.75.2-3.78.59s-1.74-.38-2.57-.84c-1.26-.7-2.86-1.51-4.08-.2-.64.69-.46 1.74-.61 2.57-.28 1.5-.92 1.61-2.26 1.8-.9.12-2.22.53-2 1.65.21.88 1.06 1.42.12 2.24s-3.07-.19-3.94 1.33a2.66 2.66 0 00.14 2h-24.6a5.08 5.08 0 01-.51-2.68 3.2 3.2 0 01.2-.81c.42-1.18 1.33-2.17 1.54-3.43a3.71 3.71 0 00.05-.48c0-1.61-.91-3.17-.82-4.75a3.21 3.21 0 01.61-1.78 4.84 4.84 0 012.36-1.65z"/><path class="cls-3" d="M102.65 23.67V15h26.69v28.11c-3-1.37-6.48-2.79-9.48-.32a4 4 0 00-1.47 2.45h-11.63v3.43h11.61a6.4 6.4 0 01-.3 2.42c-.61 1.71-2.86 2-4.77 2.8h-6.54v3.42h3.57c-.09 1.58.84 3.14.82 4.75a3.71 3.71 0 01-.05.48h-4.34V66h2.8a3.2 3.2 0 00-.2.81 5.08 5.08 0 00.51 2.68h-7.22V23.67zM126.3 40v-3.41h-19.54V40zm0-8.65v-3.42h-19.54v3.43zm0-8.65v-3.42h-19.54v3.43z"/><path class="cls-5" d="M106.76 36.59h19.54v3.42h-19.54zm0-8.66h19.54v3.43h-19.54zm0 17.31h11.63a17.06 17.06 0 000 3.43h-11.63zm0-25.96h19.54v3.43h-19.54z"/><path class="cls-6" d="M81.99 28.47h1.63v40.99h-1.63zm19.03-13.48h1.63v40.99h-1.63zm40.25 15.4h1.63v21.65h-1.63zm-97.99 3.52h1.19v23.76h-1.19z"/><rect class="cls-3" x="1.48" y="101.04" width="183.71" height="6.64" rx="3.32" ry="3.32"/><path class="cls-7" d="M24.72 83.45s-.28.81-.56 1.83a17.28 17.28 0 00-.66 3.08h.48a18.51 18.51 0 01.64-3l.38-1.23c.1-.33.17-.52.17-.52l-.46-.16zm-4.35.4v.23c0 .45.13 1.49.13 2.63 0 .53 0 1.08-.07 1.59h.49c0-.54.07-1.1.07-1.64a28 28 0 00-.16-2.91h-.48zM18 87.07a1.6 1.6 0 01.21.31 1.17 1.17 0 01.18.58h.48a1.75 1.75 0 00-.25-.86 2.14 2.14 0 00-.26-.36l-.36.33z"/><path class="cls-5" d="M24.14 84s-2.5-3.17 1.34-9.74 11.74-8.16 12.11-7.31-4 2.5-5.24 7.55-1.35 7.8-2.9 9.32-3.59 2.18-5.31.18zm-5.14.58S18.73 81 12.28 79-.26 80.78 0 81.55s4.12-.78 8 1.78 5.61 4.29 7.51 4.36 3.57-.76 3.49-3.11z"/><path class="cls-5" d="M22.88 82.25s4.29-4.61-.69-12-16-7.9-16.34-6.88 4.3 3 6.11 8.77 2.8 8.72 4.7 10.38 4.34 2.21 6.22-.27z"/><path class="cls-4" d="M25.15 83h-.06a.24.24 0 01-.17-.3c.11-.4 2.78-9.89 7.72-13.51a.24.24 0 11.29.39c-4.8 3.53-7.52 13.15-7.54 13.25a.25.25 0 01-.24.17zm-4.98-1.23a.28.28 0 01-.24-.18 1.24 1.24 0 010-.27c-.25-3.32-1.67-14.4-10.6-16.74a.24.24 0 11.12-.47c9.25 2.42 10.71 13.76 10.94 17.18v.17a.24.24 0 01-.16.3zm-3 4.43c-.11 0-.22-.1-.58-.42-4-3.62-7.86-5.34-11.47-5.11a.24.24 0 010-.48c3.75-.25 7.73 1.51 11.84 5.23l.34.3a.25.25 0 01.15.15.25.25 0 01-.15.31z"/><path class="cls-6" d="M27.13 102.69H14.57a.68.68 0 01-.66-.52l-3.09-13.38a.68.68 0 01.66-.83h18.74a.68.68 0 01.66.83l-3.09 13.38a.68.68 0 01-.66.52z"/><path class="cls-7" d="M52.18 71.1v9.74H39l17.49-27.71-6.25-.32a7.19 7.19 0 00-6.43 3.32L28.08 79.76a7.81 7.81 0 00-1.3 4.3v6h25.4v13.55h9.26V71.1zm75.64 0v9.74h-13.16l17.46-27.71-6.25-.32a7.2 7.2 0 00-6.43 3.32l-15.72 23.63a7.73 7.73 0 00-1.3 4.3v6h25.4v13.55h9.25V71.1zM84.21 103H81a14.75 14.75 0 01-14.7-14.73V66.76A14.74 14.74 0 0181 52h3.19a14.73 14.73 0 0114.74 14.76v21.51A14.74 14.74 0 0184.21 103zM81 61.29a5.47 5.47 0 00-5.46 5.47v21.51A5.48 5.48 0 0081 93.74h3.19a5.48 5.48 0 005.47-5.47V66.76a5.48 5.48 0 00-5.47-5.47z"/><g id="_Group_" data-name="&lt;Group&gt;"><path class="cls-5" d="M144.35 44.23a1.26 1.26 0 110 2.51 1.26 1.26 0 010-2.51zm.47-8.13c2.07 0 3.12 1.15 3.12 2.41 0 2.38-2.65 2.18-2.65 3.9v.44h-1.93v-.52c0-2.52 2.39-2.33 2.39-3.63 0-.6-.43-.94-1.13-.94a2.36 2.36 0 00-1.8.93l-1.35-1a4.18 4.18 0 013.35-1.59z"/><path class="cls-7" d="M175.3 99.34a18.6 18.6 0 01-2.25 4.08c-.34.28-3.09.49-3.17.07s1.57-1.32 1.57-1.32l.3-1.8 1.89-2.32a20.79 20.79 0 011.66 1.29zm-21.67 2.49a8.65 8.65 0 01.88 2.12c-.27.45-7.44 1.18-7.56.41s3.53-2.27 3.53-2.27a4.65 4.65 0 003.15-.26z"/><path class="cls-2" d="M126 65.54a15.81 15.81 0 111.11-5.81 16 16 0 01-.37 3.41l-.39 1.43c-.14.33-.26.65-.35.97zm-2.32-5.81a12.4 12.4 0 10-12.4 12.4 12.4 12.4 0 0012.36-12.4z"/><path class="cls-2" d="M141.63 65.67l1.92.39h.09l.91.19-.47 2.93-1-.21-9.79-2c-.27-.11-.58-.29-.64-.56s-1.19-.75-1.65-.83h-.16c-.24 0-.76.18-.39.85l-4.45-.89c.13-.32.25-.64.35-1s.25-.84.35-1.26a1.36 1.36 0 010-.17l.12-.44 10.27 2.06z"/><path class="cls-7" d="M156.1 82.24s4.91-2.6 6.12-5.79c-1.1 4.56-5.84 9.44-5.84 9.44-.18-2-.27-3.64-.27-3.64zM178.72 72l-1.15 5-14-3-1.06-.23-12.4-2.77-6.11-1.32.08-.49.44-2.94.12-.77h.07l3 .58 11.68 2.26 1.25.24 9.11 1.76h.16a2.14 2.14 0 011.35.84c.43.73-.42 2.41 0 2.32 2.15-.51 2-2 2-2.53z"/><path class="cls-8" d="M173.64 98.05l-1.89 2.32-.24.17c-.27.06-13.06-6.63-14-8.19-.53-.87-.91-3.93-1.13-6.46 0 0 4.74-4.88 5.84-9.44a4.41 4.41 0 00.22-.74c.64 7.33-1.16 10.65-.18 12.84.74 1.72 8.03 7.03 11.38 9.5z"/><path class="cls-9" d="M173.24 71c.08.51.2 2-2 2.53-.4.09.45-1.59 0-2.32a2.14 2.14 0 00-1.35-.84h-.22l.41-.54.39-.22 1.52-.85 1.13 2.17z"/><path class="cls-10" d="M172.08 68.67l-1.52.85s-6-8.43-7-9-9.22-2.37-9.91-1.71c-.43.41 2.86 4.94 5.78 9.53L147.73 66c-.41-.94-.75-1.8-1-2.47-.13-.45-.25-.91-.37-1.38a14.39 14.39 0 01-.44-5.6s.51.26 3.07-1.28a12.77 12.77 0 013.57 0c2.15.26 11.95 1.64 13.12 2.51.9.64 4.52 7.35 6.4 10.89z"/><path class="cls-11" d="M170.54 69.52l-.39.22s-4.76-6.54-6.5-7.7-5.69-2.1-8.76-2.25c0 0 3.15 4.45 5.77 8.74l-1.25-.24c-2.92-4.59-6.21-9.12-5.78-9.53.69-.66 8.94 1.09 9.91 1.71s7 9.05 7 9.05zm-6.4 6.21h-.75a14.64 14.64 0 00-.84-2l1.06.23a5.71 5.71 0 01.53 1.77z"/><path class="cls-10" d="M163.39 75.72h-.95l-8.73-.16h-1.25s-1.1-2-2.35-4.52l12.44 2.69a14.64 14.64 0 01.84 1.99z"/><path class="cls-8" d="M153.71 75.55l8.73.16a4.41 4.41 0 01-.22.74c-1.21 3.19-6.12 5.79-6.12 5.79-2.13 1.15-8.35 4.6-8.72 5.76s4.26 9.74 6.25 13.83a4.65 4.65 0 01-3.15.26S142 90.32 141.8 87.2s10.43-11.22 11-11.67z"/><path class="cls-9" d="M147.19 52.87a10.68 10.68 0 01.92 1c0 .07 0 .14.06.19.32.85.53 1.29.85 1.29-2.56 1.54-3.07 1.28-3.07 1.28v.05a3.06 3.06 0 00-.69-1.66 8 8 0 01-1.7.09 14.17 14.17 0 01-.95-4.57c.16 0 1.95-.42 2.31-.1s.23 1.67.71 1.59.16-.62.27-.72a.64.64 0 01.79.48 1.75 1.75 0 01.05.72l.14.12.13.13z"/><path class="cls-7" d="M147.8 49c.59 1.3.11 3.86.31 4.87a10.68 10.68 0 00-.92-1l-.16-.15-.13-.13-.14-.12a1.75 1.75 0 00-.05-.72.64.64 0 00-.79-.48c-.11.1.21.64-.27.72s-.34-1.26-.71-1.59-2.15.06-2.31.1a1.53 1.53 0 01-.7-1.23s1.63-.36 2.52-.63 2.72-1.06 3.35.36z"/><path class="cls-11" d="M146.39 62.18c.12.47.24.93.37 1.38a8.1 8.1 0 01-2 1.89h-.06a9 9 0 01-1 .58h-.09l-1.92-.39c2.16-.73 4.7-3.46 4.7-3.46z"/><path class="cls-10" d="M145.92 56.63v-.05a14.39 14.39 0 00.44 5.6s-2.54 2.73-4.76 3.49l-4.54-.91c1.62-.29 3.66-.76 4.41-1.41a19.72 19.72 0 004.45-6.72z"/><path class="cls-9" d="M133.27 67a2.66 2.66 0 00.41.13s-2.08.75-3-.27a1.88 1.88 0 01-.3-.43c-.37-.67.15-.86.39-.85h.16c.46.08 1.57.41 1.65.83s.42.5.69.59z"/><path d="M122.8 59.73a11.56 11.56 0 10-11.56 11.56 11.55 11.55 0 0011.56-11.56z" style="mix-blend-mode:hard-light" fill="#a5b7c6"/><path d="M111 54a3.43 3.43 0 10-3.42 3.42A3.42 3.42 0 00111 54z" style="mix-blend-mode:screen" fill="#a5b7c6"/></g></g></g></svg>